<svg xmlns="http://www.w3.org/2000/svg" xmlns:xlink="http://www.w3.org/1999/xlink" width="64" zoomAndPan="magnify" viewBox="0 0 48 48" height="64" preserveAspectRatio="xMidYMid meet" version="1.0"><defs><clipPath id="f5561ee8fa"><path d="M 9.636719 5.300781 L 38.292969 5.300781 L 38.292969 42 L 9.636719 42 Z M 9.636719 5.300781 " clip-rule="nonzero"/></clipPath></defs><g clip-path="url(#f5561ee8fa)"><path fill="#ffffff" d="M 24 31.210938 C 17.617188 31.210938 12.449219 26.039062 12.449219 19.660156 C 12.449219 13.28125 17.617188 8.109375 24 8.109375 C 30.378906 8.109375 35.546875 13.28125 35.546875 19.660156 C 35.546875 26.039062 30.378906 31.210938 24 31.210938 Z M 24 5.304688 C 16.070312 5.304688 9.640625 11.730469 9.640625 19.660156 C 9.640625 32.378906 24 41.714844 24 41.714844 C 24 41.714844 38.355469 32.378906 38.355469 19.660156 C 38.355469 11.730469 31.925781 5.304688 24 5.304688 " fill-opacity="1" fill-rule="nonzero"/></g><path fill="#ffffff" d="M 28.894531 21.730469 C 28.414062 21.730469 27.421875 21.730469 27.421875 20.925781 C 27.421875 20.234375 28.203125 19.449219 28.894531 19.449219 C 29.582031 19.449219 30.144531 20.011719 30.144531 20.703125 C 30.144531 21.335938 29.664062 21.730469 28.894531 21.730469 Z M 26.46875 22.722656 C 26.46875 22.800781 26.40625 22.867188 26.324219 22.867188 L 21.671875 22.867188 C 21.589844 22.867188 21.527344 22.800781 21.527344 22.722656 L 21.527344 21.574219 C 21.527344 21.496094 21.589844 21.433594 21.671875 21.433594 L 26.324219 21.433594 C 26.40625 21.433594 26.46875 21.496094 26.46875 21.574219 Z M 19.105469 21.730469 C 18.332031 21.730469 17.855469 21.335938 17.855469 20.703125 C 17.855469 20.011719 18.414062 19.449219 19.105469 19.449219 C 19.792969 19.449219 20.578125 20.234375 20.578125 20.925781 C 20.578125 21.730469 19.582031 21.730469 19.105469 21.730469 Z M 20.089844 16.109375 C 20.269531 15.671875 20.828125 15.304688 21.300781 15.304688 L 26.699219 15.304688 C 27.171875 15.304688 27.726562 15.671875 27.910156 16.109375 L 28.65625 17.886719 C 27.476562 17.605469 25.921875 17.464844 24 17.464844 C 22.074219 17.464844 20.519531 17.605469 19.339844 17.886719 Z M 31.414062 20.214844 C 31.414062 19.367188 30.875 18.714844 29.808594 18.257812 L 30.597656 18.179688 C 30.679688 18.171875 30.753906 18.132812 30.804688 18.070312 C 30.855469 18.007812 30.882812 17.929688 30.875 17.847656 L 30.832031 17.410156 C 30.816406 17.246094 30.675781 17.121094 30.507812 17.132812 L 28.847656 17.117188 L 28.351562 15.925781 C 28.089844 15.308594 27.363281 14.824219 26.699219 14.824219 L 21.300781 14.824219 C 20.632812 14.824219 19.90625 15.308594 19.648438 15.925781 L 19.148438 17.117188 L 17.488281 17.132812 C 17.320312 17.121094 17.179688 17.246094 17.164062 17.410156 L 17.125 17.847656 C 17.117188 17.929688 17.140625 18.007812 17.191406 18.070312 C 17.242188 18.132812 17.316406 18.171875 17.398438 18.179688 L 18.1875 18.257812 C 17.121094 18.714844 16.582031 19.367188 16.582031 20.214844 L 16.582031 20.359375 C 16.582031 21.121094 16.578125 21.902344 17.191406 22.519531 C 17.261719 22.589844 17.339844 22.65625 17.425781 22.71875 L 17.425781 24.21875 C 17.425781 24.460938 17.625 24.664062 17.871094 24.664062 L 19.898438 24.664062 C 20.140625 24.664062 20.339844 24.460938 20.339844 24.21875 L 20.339844 23.625 C 21.328125 23.746094 22.535156 23.804688 24 23.804688 C 25.460938 23.804688 26.671875 23.746094 27.65625 23.625 L 27.65625 24.21875 C 27.65625 24.460938 27.855469 24.664062 28.097656 24.664062 L 30.128906 24.664062 C 30.375 24.664062 30.570312 24.460938 30.570312 24.21875 L 30.570312 22.71875 C 30.65625 22.65625 30.734375 22.589844 30.804688 22.519531 C 31.417969 21.902344 31.417969 21.121094 31.414062 20.359375 L 31.414062 20.214844 " fill-opacity="1" fill-rule="nonzero"/></svg>